<?xml version="1.0" standalone="no"?>
<!DOCTYPE svg PUBLIC "-//W3C//DTD SVG 1.1//EN"
"http://www.w3.org/Graphics/SVG/1.1/DTD/svg11.dtd">
<svg width="100%" height="100%" version="1.1"
xmlns="http://www.w3.org/2000/svg"
xmlns:xlink="http://www.w3.org/1999/xlink">
<g fill-rule="evenodd"><path d="M 0,845 L 0,20 L 950,20 L 950,845 L 0,845 z " style="opacity:0.8;fill:none;stroke:rgb(205,205,205);stroke-width:1;stroke-linecap:square"/></g>
<g fill-rule="evenodd"><path d="M 505,380 L 385,380 L 385,352 L 505,352 L 505,380 z " style="fill-rule:nonzero;fill-opacity:0.3;fill:rgb(255,255,64);stroke:rgb(255,255,64);stroke-width:2;"/></g>
<g fill-rule="evenodd"><path d="M 505,325 L 505,352 L 385,352 L 385,325 L 505,325 z " style="fill-rule:nonzero;fill-opacity:0.3;fill:rgb(192,192,48);stroke:rgb(192,192,48);stroke-width:2;"/></g>
<g fill-rule="evenodd"><path d="M 504,380 L 385,380 L 385,379 L 504,379 L 504,380 z " style="fill-rule:nonzero;fill-opacity:0.7;fill:rgb(0,128,255);stroke:rgb(0,128,255);stroke-width:3;"/></g>
<g fill-rule="evenodd"><path d="M 625,580 L 625,430 L 652,430 L 652,580 L 625,580 z " style="fill-rule:nonzero;fill-opacity:0.3;fill:rgb(255,255,64);stroke:rgb(255,255,64);stroke-width:2;"/></g>
<g fill-rule="evenodd"><path d="M 679,580 L 652,580 L 652,430 L 679,430 L 679,580 z " style="fill-rule:nonzero;fill-opacity:0.3;fill:rgb(192,192,48);stroke:rgb(192,192,48);stroke-width:2;"/></g>
<g fill-rule="evenodd"><path d="M 624,579 L 624,430 L 625,430 L 625,579 L 624,579 z " style="fill-rule:nonzero;fill-opacity:0.7;fill:rgb(0,128,255);stroke:rgb(0,128,255);stroke-width:3;"/></g>
<g fill-rule="evenodd"><path d="M 325,580 L 297,580 L 297,430 L 325,430 L 325,580 z " style="fill-rule:nonzero;fill-opacity:0.3;fill:rgb(255,255,64);stroke:rgb(255,255,64);stroke-width:2;"/></g>
<g fill-rule="evenodd"><path d="M 270,580 L 270,430 L 297,430 L 297,580 L 270,580 z " style="fill-rule:nonzero;fill-opacity:0.3;fill:rgb(192,192,48);stroke:rgb(192,192,48);stroke-width:2;"/></g>
<g fill-rule="evenodd"><path d="M 325,430 L 325,579 L 324,579 L 324,430 L 325,430 z " style="fill-rule:nonzero;fill-opacity:0.7;fill:rgb(0,128,255);stroke:rgb(0,128,255);stroke-width:3;"/></g>
<g fill-rule="evenodd"><path d="M 625,730 L 625,580 L 652,580 L 652,730 L 625,730 z " style="fill-rule:nonzero;fill-opacity:0.3;fill:rgb(255,255,64);stroke:rgb(255,255,64);stroke-width:2;"/></g>
<g fill-rule="evenodd"><path d="M 679,730 L 652,730 L 652,580 L 679,580 L 679,730 z " style="fill-rule:nonzero;fill-opacity:0.3;fill:rgb(192,192,48);stroke:rgb(192,192,48);stroke-width:2;"/></g>
<g fill-rule="evenodd"><path d="M 624,729 L 624,580 L 625,580 L 625,729 L 624,729 z " style="fill-rule:nonzero;fill-opacity:0.7;fill:rgb(0,128,255);stroke:rgb(0,128,255);stroke-width:3;"/></g>
<g fill-rule="evenodd"><path d="M 325,730 L 297,730 L 297,580 L 325,580 L 325,730 z " style="fill-rule:nonzero;fill-opacity:0.3;fill:rgb(255,255,64);stroke:rgb(255,255,64);stroke-width:2;"/></g>
<g fill-rule="evenodd"><path d="M 270,730 L 270,580 L 297,580 L 297,730 L 270,730 z " style="fill-rule:nonzero;fill-opacity:0.3;fill:rgb(192,192,48);stroke:rgb(192,192,48);stroke-width:2;"/></g>
<g fill-rule="evenodd"><path d="M 325,580 L 325,729 L 324,729 L 324,580 L 325,580 z " style="fill-rule:nonzero;fill-opacity:0.7;fill:rgb(0,128,255);stroke:rgb(0,128,255);stroke-width:3;"/></g>
<g fill-rule="evenodd"><path d="M 535,72 L 415,72 L 415,45 L 535,45 L 535,72 z " style="fill-rule:nonzero;fill-opacity:0.3;fill:rgb(255,255,64);stroke:rgb(255,255,64);stroke-width:2;"/></g>
<g fill-rule="evenodd"><path d="M 535,99 L 415,99 L 415,72 L 535,72 L 535,99 z " style="fill-rule:nonzero;fill-opacity:0.3;fill:rgb(192,192,48);stroke:rgb(192,192,48);stroke-width:2;"/></g>
<g fill-rule="evenodd"><path d="M 415,44 L 534,44 L 534,45 L 415,45 L 415,44 z " style="fill-rule:nonzero;fill-opacity:0.7;fill:rgb(0,128,255);stroke:rgb(0,128,255);stroke-width:3;"/></g>
<g fill-rule="evenodd"><path d="M 655,72 L 535,72 L 535,45 L 655,45 L 655,72 z " style="fill-rule:nonzero;fill-opacity:0.3;fill:rgb(255,255,64);stroke:rgb(255,255,64);stroke-width:2;"/></g>
<g fill-rule="evenodd"><path d="M 655,99 L 535,99 L 535,72 L 655,72 L 655,99 z " style="fill-rule:nonzero;fill-opacity:0.3;fill:rgb(192,192,48);stroke:rgb(192,192,48);stroke-width:2;"/></g>
<g fill-rule="evenodd"><path d="M 535,44 L 654,44 L 654,45 L 535,45 L 535,44 z " style="fill-rule:nonzero;fill-opacity:0.7;fill:rgb(0,128,255);stroke:rgb(0,128,255);stroke-width:3;"/></g>
<g fill-rule="evenodd"><path d="M 775,72 L 655,72 L 655,45 L 775,45 L 775,72 z " style="fill-rule:nonzero;fill-opacity:0.3;fill:rgb(255,255,64);stroke:rgb(255,255,64);stroke-width:2;"/></g>
<g fill-rule="evenodd"><path d="M 775,99 L 655,99 L 655,72 L 775,72 L 775,99 z " style="fill-rule:nonzero;fill-opacity:0.3;fill:rgb(192,192,48);stroke:rgb(192,192,48);stroke-width:2;"/></g>
<g fill-rule="evenodd"><path d="M 655,44 L 774,44 L 774,45 L 655,45 L 655,44 z " style="fill-rule:nonzero;fill-opacity:0.7;fill:rgb(0,128,255);stroke:rgb(0,128,255);stroke-width:3;"/></g>
<g fill-rule="evenodd"><path d="M 415,72 L 295,72 L 295,45 L 415,45 L 415,72 z " style="fill-rule:nonzero;fill-opacity:0.3;fill:rgb(255,255,64);stroke:rgb(255,255,64);stroke-width:2;"/></g>
<g fill-rule="evenodd"><path d="M 415,99 L 295,99 L 295,72 L 415,72 L 415,99 z " style="fill-rule:nonzero;fill-opacity:0.3;fill:rgb(192,192,48);stroke:rgb(192,192,48);stroke-width:2;"/></g>
<g fill-rule="evenodd"><path d="M 295,44 L 414,44 L 414,45 L 295,45 L 295,44 z " style="fill-rule:nonzero;fill-opacity:0.7;fill:rgb(0,128,255);stroke:rgb(0,128,255);stroke-width:3;"/></g>
<g fill-rule="evenodd"><path d="M 295,72 L 175,72 L 175,45 L 295,45 L 295,72 z " style="fill-rule:nonzero;fill-opacity:0.3;fill:rgb(255,255,64);stroke:rgb(255,255,64);stroke-width:2;"/></g>
<g fill-rule="evenodd"><path d="M 295,99 L 175,99 L 175,72 L 295,72 L 295,99 z " style="fill-rule:nonzero;fill-opacity:0.3;fill:rgb(192,192,48);stroke:rgb(192,192,48);stroke-width:2;"/></g>
<g fill-rule="evenodd"><path d="M 175,44 L 294,44 L 294,45 L 175,45 L 175,44 z " style="fill-rule:nonzero;fill-opacity:0.7;fill:rgb(0,128,255);stroke:rgb(0,128,255);stroke-width:3;"/></g>
<g fill-rule="evenodd"><path d="M 565,380 L 565,352 L 638,352 L 638,380 L 565,380 z " style="fill-rule:nonzero;fill-opacity:0.3;fill:rgb(255,255,64);stroke:rgb(255,255,64);stroke-width:2;"/></g>
<g fill-rule="evenodd"><path d="M 565,325 L 638,325 L 638,352 L 565,352 L 565,325 z " style="fill-rule:nonzero;fill-opacity:0.3;fill:rgb(192,192,48);stroke:rgb(192,192,48);stroke-width:2;"/></g>
<g fill-rule="evenodd"><path d="M 624,380 L 565,380 L 565,379 L 624,379 L 624,380 z " style="fill-rule:nonzero;fill-opacity:0.7;fill:rgb(0,128,255);stroke:rgb(0,128,255);stroke-width:3;"/></g>
<g fill-rule="evenodd"><path d="M 385,380 L 311,380 L 311,352 L 385,352 L 385,380 z " style="fill-rule:nonzero;fill-opacity:0.3;fill:rgb(255,255,64);stroke:rgb(255,255,64);stroke-width:2;"/></g>
<g fill-rule="evenodd"><path d="M 385,325 L 385,352 L 311,352 L 311,325 L 385,325 z " style="fill-rule:nonzero;fill-opacity:0.3;fill:rgb(192,192,48);stroke:rgb(192,192,48);stroke-width:2;"/></g>
<g fill-rule="evenodd"><path d="M 384,380 L 325,380 L 325,379 L 384,379 L 384,380 z " style="fill-rule:nonzero;fill-opacity:0.7;fill:rgb(0,128,255);stroke:rgb(0,128,255);stroke-width:3;"/></g>
<g fill-rule="evenodd"><path d="M 925,460 L 897,460 L 897,280 L 925,280 L 925,460 z " style="fill-rule:nonzero;fill-opacity:0.3;fill:rgb(255,255,64);stroke:rgb(255,255,64);stroke-width:2;"/></g>
<g fill-rule="evenodd"><path d="M 870,460 L 870,280 L 897,280 L 897,460 L 870,460 z " style="fill-rule:nonzero;fill-opacity:0.3;fill:rgb(192,192,48);stroke:rgb(192,192,48);stroke-width:2;"/></g>
<g fill-rule="evenodd"><path d="M 925,280 L 925,459 L 924,459 L 924,280 L 925,280 z " style="fill-rule:nonzero;fill-opacity:0.7;fill:rgb(0,128,255);stroke:rgb(0,128,255);stroke-width:3;"/></g>
<g fill-rule="evenodd"><path d="M 25,460 L 25,280 L 52,280 L 52,460 L 25,460 z " style="fill-rule:nonzero;fill-opacity:0.3;fill:rgb(255,255,64);stroke:rgb(255,255,64);stroke-width:2;"/></g>
<g fill-rule="evenodd"><path d="M 79,460 L 52,460 L 52,280 L 79,280 L 79,460 z " style="fill-rule:nonzero;fill-opacity:0.3;fill:rgb(192,192,48);stroke:rgb(192,192,48);stroke-width:2;"/></g>
<g fill-rule="evenodd"><path d="M 24,459 L 24,280 L 25,280 L 25,459 L 24,459 z " style="fill-rule:nonzero;fill-opacity:0.7;fill:rgb(0,128,255);stroke:rgb(0,128,255);stroke-width:3;"/></g>
<g fill-rule="evenodd"><path d="M 925,820 L 897,820 L 897,640 L 925,640 L 925,820 z " style="fill-rule:nonzero;fill-opacity:0.3;fill:rgb(255,255,64);stroke:rgb(255,255,64);stroke-width:2;"/></g>
<g fill-rule="evenodd"><path d="M 870,792 L 870,640 L 897,640 L 897,792 L 870,792 z " style="fill-rule:nonzero;fill-opacity:0.3;fill:rgb(192,192,48);stroke:rgb(192,192,48);stroke-width:2;"/></g>
<g fill-rule="evenodd"><path d="M 925,640 L 925,819 L 924,819 L 924,640 L 925,640 z " style="fill-rule:nonzero;fill-opacity:0.7;fill:rgb(0,128,255);stroke:rgb(0,128,255);stroke-width:3;"/></g>
<g fill-rule="evenodd"><path d="M 897,820 L 775,820 L 775,792 L 897,792 L 897,820 z " style="fill-rule:nonzero;fill-opacity:0.3;fill:rgb(255,255,64);stroke:rgb(255,255,64);stroke-width:2;"/></g>
<g fill-rule="evenodd"><path d="M 870,792 L 775,792 L 775,765 L 870,765 L 870,792 z " style="fill-rule:nonzero;fill-opacity:0.3;fill:rgb(192,192,48);stroke:rgb(192,192,48);stroke-width:2;"/></g>
<g fill-rule="evenodd"><path d="M 924,820 L 775,820 L 775,819 L 924,819 L 924,820 z " style="fill-rule:nonzero;fill-opacity:0.7;fill:rgb(0,128,255);stroke:rgb(0,128,255);stroke-width:3;"/></g>
<g fill-rule="evenodd"><path d="M 925,640 L 897,640 L 897,460 L 925,460 L 925,640 z " style="fill-rule:nonzero;fill-opacity:0.3;fill:rgb(255,255,64);stroke:rgb(255,255,64);stroke-width:2;"/></g>
<g fill-rule="evenodd"><path d="M 870,640 L 870,460 L 897,460 L 897,640 L 870,640 z " style="fill-rule:nonzero;fill-opacity:0.3;fill:rgb(192,192,48);stroke:rgb(192,192,48);stroke-width:2;"/></g>
<g fill-rule="evenodd"><path d="M 925,460 L 925,639 L 924,639 L 924,460 L 925,460 z " style="fill-rule:nonzero;fill-opacity:0.7;fill:rgb(0,128,255);stroke:rgb(0,128,255);stroke-width:3;"/></g>
<g fill-rule="evenodd"><path d="M 25,820 L 25,640 L 52,640 L 52,820 L 25,820 z " style="fill-rule:nonzero;fill-opacity:0.3;fill:rgb(255,255,64);stroke:rgb(255,255,64);stroke-width:2;"/></g>
<g fill-rule="evenodd"><path d="M 52,792 L 52,640 L 79,640 L 79,792 L 52,792 z " style="fill-rule:nonzero;fill-opacity:0.3;fill:rgb(192,192,48);stroke:rgb(192,192,48);stroke-width:2;"/></g>
<g fill-rule="evenodd"><path d="M 24,819 L 24,640 L 25,640 L 25,819 L 24,819 z " style="fill-rule:nonzero;fill-opacity:0.7;fill:rgb(0,128,255);stroke:rgb(0,128,255);stroke-width:3;"/></g>
<g fill-rule="evenodd"><path d="M 52,820 L 52,792 L 175,792 L 175,820 L 52,820 z " style="fill-rule:nonzero;fill-opacity:0.3;fill:rgb(255,255,64);stroke:rgb(255,255,64);stroke-width:2;"/></g>
<g fill-rule="evenodd"><path d="M 79,765 L 175,765 L 175,792 L 79,792 L 79,765 z " style="fill-rule:nonzero;fill-opacity:0.3;fill:rgb(192,192,48);stroke:rgb(192,192,48);stroke-width:2;"/></g>
<g fill-rule="evenodd"><path d="M 174,820 L 25,820 L 25,819 L 174,819 L 174,820 z " style="fill-rule:nonzero;fill-opacity:0.7;fill:rgb(0,128,255);stroke:rgb(0,128,255);stroke-width:3;"/></g>
<g fill-rule="evenodd"><path d="M 25,640 L 25,460 L 52,460 L 52,640 L 25,640 z " style="fill-rule:nonzero;fill-opacity:0.3;fill:rgb(255,255,64);stroke:rgb(255,255,64);stroke-width:2;"/></g>
<g fill-rule="evenodd"><path d="M 79,640 L 52,640 L 52,460 L 79,460 L 79,640 z " style="fill-rule:nonzero;fill-opacity:0.3;fill:rgb(192,192,48);stroke:rgb(192,192,48);stroke-width:2;"/></g>
<g fill-rule="evenodd"><path d="M 24,639 L 24,460 L 25,460 L 25,639 L 24,639 z " style="fill-rule:nonzero;fill-opacity:0.7;fill:rgb(0,128,255);stroke:rgb(0,128,255);stroke-width:3;"/></g>
<g fill-rule="evenodd"><path d="M 925,280 L 897,280 L 897,45 L 925,45 L 925,280 z " style="fill-rule:nonzero;fill-opacity:0.3;fill:rgb(255,255,64);stroke:rgb(255,255,64);stroke-width:2;"/></g>
<g fill-rule="evenodd"><path d="M 870,72 L 897,72 L 897,280 L 870,280 L 870,72 z " style="fill-rule:nonzero;fill-opacity:0.3;fill:rgb(192,192,48);stroke:rgb(192,192,48);stroke-width:2;"/></g>
<g fill-rule="evenodd"><path d="M 925,45 L 925,279 L 924,279 L 924,45 L 925,45 z " style="fill-rule:nonzero;fill-opacity:0.7;fill:rgb(0,128,255);stroke:rgb(0,128,255);stroke-width:3;"/></g>
<g fill-rule="evenodd"><path d="M 897,72 L 775,72 L 775,45 L 897,45 L 897,72 z " style="fill-rule:nonzero;fill-opacity:0.3;fill:rgb(255,255,64);stroke:rgb(255,255,64);stroke-width:2;"/></g>
<g fill-rule="evenodd"><path d="M 870,99 L 775,99 L 775,72 L 870,72 L 870,99 z " style="fill-rule:nonzero;fill-opacity:0.3;fill:rgb(192,192,48);stroke:rgb(192,192,48);stroke-width:2;"/></g>
<g fill-rule="evenodd"><path d="M 775,44 L 924,44 L 924,45 L 775,45 L 775,44 z " style="fill-rule:nonzero;fill-opacity:0.7;fill:rgb(0,128,255);stroke:rgb(0,128,255);stroke-width:3;"/></g>
<g fill-rule="evenodd"><path d="M 25,280 L 25,45 L 52,45 L 52,280 L 25,280 z " style="fill-rule:nonzero;fill-opacity:0.3;fill:rgb(255,255,64);stroke:rgb(255,255,64);stroke-width:2;"/></g>
<g fill-rule="evenodd"><path d="M 52,72 L 79,72 L 79,280 L 52,280 L 52,72 z " style="fill-rule:nonzero;fill-opacity:0.3;fill:rgb(192,192,48);stroke:rgb(192,192,48);stroke-width:2;"/></g>
<g fill-rule="evenodd"><path d="M 24,279 L 24,45 L 25,45 L 25,279 L 24,279 z " style="fill-rule:nonzero;fill-opacity:0.7;fill:rgb(0,128,255);stroke:rgb(0,128,255);stroke-width:3;"/></g>
<g fill-rule="evenodd"><path d="M 52,72 L 52,45 L 175,45 L 175,72 L 52,72 z " style="fill-rule:nonzero;fill-opacity:0.3;fill:rgb(255,255,64);stroke:rgb(255,255,64);stroke-width:2;"/></g>
<g fill-rule="evenodd"><path d="M 79,72 L 175,72 L 175,99 L 79,99 L 79,72 z " style="fill-rule:nonzero;fill-opacity:0.3;fill:rgb(192,192,48);stroke:rgb(192,192,48);stroke-width:2;"/></g>
<g fill-rule="evenodd"><path d="M 25,44 L 174,44 L 174,45 L 25,45 L 25,44 z " style="fill-rule:nonzero;fill-opacity:0.7;fill:rgb(0,128,255);stroke:rgb(0,128,255);stroke-width:3;"/></g>
<g fill-rule="evenodd"><path d="M 565,380 L 505,380 L 505,352 L 565,352 L 565,380 z " style="fill-rule:nonzero;fill-opacity:0.3;fill:rgb(255,255,64);stroke:rgb(255,255,64);stroke-width:2;"/></g>
<g fill-rule="evenodd"><path d="M 565,325 L 565,352 L 505,352 L 505,325 L 565,325 z " style="fill-rule:nonzero;fill-opacity:0.3;fill:rgb(192,192,48);stroke:rgb(192,192,48);stroke-width:2;"/></g>
<g fill-rule="evenodd"><path d="M 564,380 L 505,380 L 505,379 L 564,379 L 564,380 z " style="fill-rule:nonzero;fill-opacity:0.7;fill:rgb(0,128,255);stroke:rgb(0,128,255);stroke-width:3;"/></g>
<g fill-rule="evenodd"><path d="M 625,430 L 625,380 L 652,380 L 652,430 L 625,430 z " style="fill-rule:nonzero;fill-opacity:0.3;fill:rgb(255,255,64);stroke:rgb(255,255,64);stroke-width:2;"/></g>
<g fill-rule="evenodd"><path d="M 679,430 L 652,430 L 652,380 L 679,380 L 679,430 z " style="fill-rule:nonzero;fill-opacity:0.3;fill:rgb(192,192,48);stroke:rgb(192,192,48);stroke-width:2;"/></g>
<g fill-rule="evenodd"><path d="M 624,429 L 624,380 L 625,380 L 625,429 L 624,429 z " style="fill-rule:nonzero;fill-opacity:0.7;fill:rgb(0,128,255);stroke:rgb(0,128,255);stroke-width:3;"/></g>
<g fill-rule="evenodd"><path d="M 325,430 L 297,430 L 297,380 L 325,380 L 325,430 z " style="fill-rule:nonzero;fill-opacity:0.3;fill:rgb(255,255,64);stroke:rgb(255,255,64);stroke-width:2;"/></g>
<g fill-rule="evenodd"><path d="M 270,430 L 270,380 L 297,380 L 297,430 L 270,430 z " style="fill-rule:nonzero;fill-opacity:0.3;fill:rgb(192,192,48);stroke:rgb(192,192,48);stroke-width:2;"/></g>
<g fill-rule="evenodd"><path d="M 325,380 L 325,429 L 324,429 L 324,380 L 325,380 z " style="fill-rule:nonzero;fill-opacity:0.7;fill:rgb(0,128,255);stroke:rgb(0,128,255);stroke-width:3;"/></g>
<g fill-rule="evenodd"><path d="M 775,820 L 625,820 L 625,792 L 775,792 L 775,820 z " style="fill-rule:nonzero;fill-opacity:0.3;fill:rgb(255,255,64);stroke:rgb(255,255,64);stroke-width:2;"/></g>
<g fill-rule="evenodd"><path d="M 652,792 L 652,765 L 775,765 L 775,792 L 652,792 z " style="fill-rule:nonzero;fill-opacity:0.3;fill:rgb(192,192,48);stroke:rgb(192,192,48);stroke-width:2;"/></g>
<g fill-rule="evenodd"><path d="M 774,820 L 625,820 L 625,819 L 774,819 L 774,820 z " style="fill-rule:nonzero;fill-opacity:0.7;fill:rgb(0,128,255);stroke:rgb(0,128,255);stroke-width:3;"/></g>
<g fill-rule="evenodd"><path d="M 625,792 L 625,730 L 652,730 L 652,792 L 625,792 z " style="fill-rule:nonzero;fill-opacity:0.3;fill:rgb(255,255,64);stroke:rgb(255,255,64);stroke-width:2;"/></g>
<g fill-rule="evenodd"><path d="M 652,765 L 652,730 L 679,730 L 679,765 L 652,765M 679,792 L 679,792 z " style="fill-rule:nonzero;fill-opacity:0.3;fill:rgb(192,192,48);stroke:rgb(192,192,48);stroke-width:2;"/></g>
<g fill-rule="evenodd"><path d="M 624,819 L 624,730 L 625,730 L 625,819 L 624,819 z " style="fill-rule:nonzero;fill-opacity:0.7;fill:rgb(0,128,255);stroke:rgb(0,128,255);stroke-width:3;"/></g>
<g fill-rule="evenodd"><path d="M 325,820 L 175,820 L 175,792 L 325,792 L 325,820 z " style="fill-rule:nonzero;fill-opacity:0.3;fill:rgb(255,255,64);stroke:rgb(255,255,64);stroke-width:2;"/></g>
<g fill-rule="evenodd"><path d="M 297,792 L 175,792 L 175,765 L 297,765 L 297,792 z " style="fill-rule:nonzero;fill-opacity:0.3;fill:rgb(192,192,48);stroke:rgb(192,192,48);stroke-width:2;"/></g>
<g fill-rule="evenodd"><path d="M 324,820 L 175,820 L 175,819 L 324,819 L 324,820 z " style="fill-rule:nonzero;fill-opacity:0.7;fill:rgb(0,128,255);stroke:rgb(0,128,255);stroke-width:3;"/></g>
<g fill-rule="evenodd"><path d="M 297,792 L 297,730 L 325,730 L 325,792 L 297,792 z " style="fill-rule:nonzero;fill-opacity:0.3;fill:rgb(255,255,64);stroke:rgb(255,255,64);stroke-width:2;"/></g>
<g fill-rule="evenodd"><path d="M 270,765 L 270,730 L 297,730 L 297,765 L 270,765 z " style="fill-rule:nonzero;fill-opacity:0.3;fill:rgb(192,192,48);stroke:rgb(192,192,48);stroke-width:2;"/></g>
<g fill-rule="evenodd"><path d="M 325,730 L 325,819 L 324,819 L 324,730 L 325,730 z " style="fill-rule:nonzero;fill-opacity:0.7;fill:rgb(0,128,255);stroke:rgb(0,128,255);stroke-width:3;"/></g>
<circle cx="445" cy="352" r="3" style="fill-opacity:0.5;fill:rgb(0,96,0);stroke:rgb(0,96,0);stroke-width:1"/>
<circle cx="445" cy="325" r="2" style="fill-opacity:0.5;fill:rgb(0,96,0);stroke:rgb(0,96,0);stroke-width:1"/>
<circle cx="652" cy="505" r="3" style="fill-opacity:0.5;fill:rgb(0,96,0);stroke:rgb(0,96,0);stroke-width:1"/>
<circle cx="679" cy="505" r="2" style="fill-opacity:0.5;fill:rgb(0,96,0);stroke:rgb(0,96,0);stroke-width:1"/>
<circle cx="297" cy="505" r="3" style="fill-opacity:0.5;fill:rgb(0,96,0);stroke:rgb(0,96,0);stroke-width:1"/>
<circle cx="270" cy="505" r="2" style="fill-opacity:0.5;fill:rgb(0,96,0);stroke:rgb(0,96,0);stroke-width:1"/>
<circle cx="652" cy="655" r="3" style="fill-opacity:0.5;fill:rgb(0,96,0);stroke:rgb(0,96,0);stroke-width:1"/>
<circle cx="679" cy="655" r="2" style="fill-opacity:0.5;fill:rgb(0,96,0);stroke:rgb(0,96,0);stroke-width:1"/>
<circle cx="297" cy="655" r="3" style="fill-opacity:0.5;fill:rgb(0,96,0);stroke:rgb(0,96,0);stroke-width:1"/>
<circle cx="270" cy="655" r="2" style="fill-opacity:0.5;fill:rgb(0,96,0);stroke:rgb(0,96,0);stroke-width:1"/>
<circle cx="475" cy="72" r="3" style="fill-opacity:0.5;fill:rgb(0,96,0);stroke:rgb(0,96,0);stroke-width:1"/>
<circle cx="475" cy="99" r="2" style="fill-opacity:0.5;fill:rgb(0,96,0);stroke:rgb(0,96,0);stroke-width:1"/>
<circle cx="595" cy="72" r="3" style="fill-opacity:0.5;fill:rgb(0,96,0);stroke:rgb(0,96,0);stroke-width:1"/>
<circle cx="595" cy="99" r="2" style="fill-opacity:0.5;fill:rgb(0,96,0);stroke:rgb(0,96,0);stroke-width:1"/>
<circle cx="715" cy="72" r="3" style="fill-opacity:0.5;fill:rgb(0,96,0);stroke:rgb(0,96,0);stroke-width:1"/>
<circle cx="715" cy="99" r="2" style="fill-opacity:0.5;fill:rgb(0,96,0);stroke:rgb(0,96,0);stroke-width:1"/>
<circle cx="355" cy="72" r="3" style="fill-opacity:0.5;fill:rgb(0,96,0);stroke:rgb(0,96,0);stroke-width:1"/>
<circle cx="355" cy="99" r="2" style="fill-opacity:0.5;fill:rgb(0,96,0);stroke:rgb(0,96,0);stroke-width:1"/>
<circle cx="235" cy="72" r="3" style="fill-opacity:0.5;fill:rgb(0,96,0);stroke:rgb(0,96,0);stroke-width:1"/>
<circle cx="235" cy="99" r="2" style="fill-opacity:0.5;fill:rgb(0,96,0);stroke:rgb(0,96,0);stroke-width:1"/>
<circle cx="595" cy="352" r="3" style="fill-opacity:0.5;fill:rgb(0,96,0);stroke:rgb(0,96,0);stroke-width:1"/>
<circle cx="595" cy="325" r="2" style="fill-opacity:0.5;fill:rgb(0,96,0);stroke:rgb(0,96,0);stroke-width:1"/>
<circle cx="355" cy="352" r="3" style="fill-opacity:0.5;fill:rgb(0,96,0);stroke:rgb(0,96,0);stroke-width:1"/>
<circle cx="355" cy="325" r="2" style="fill-opacity:0.5;fill:rgb(0,96,0);stroke:rgb(0,96,0);stroke-width:1"/>
<circle cx="897" cy="369" r="3" style="fill-opacity:0.5;fill:rgb(0,96,0);stroke:rgb(0,96,0);stroke-width:1"/>
<circle cx="870" cy="369" r="2" style="fill-opacity:0.5;fill:rgb(0,96,0);stroke:rgb(0,96,0);stroke-width:1"/>
<circle cx="52" cy="369" r="3" style="fill-opacity:0.5;fill:rgb(0,96,0);stroke:rgb(0,96,0);stroke-width:1"/>
<circle cx="79" cy="369" r="2" style="fill-opacity:0.5;fill:rgb(0,96,0);stroke:rgb(0,96,0);stroke-width:1"/>
<circle cx="850" cy="792" r="3" style="fill-opacity:0.5;fill:rgb(0,96,0);stroke:rgb(0,96,0);stroke-width:1"/>
<circle cx="850" cy="765" r="2" style="fill-opacity:0.5;fill:rgb(0,96,0);stroke:rgb(0,96,0);stroke-width:1"/>
<circle cx="897" cy="550" r="3" style="fill-opacity:0.5;fill:rgb(0,96,0);stroke:rgb(0,96,0);stroke-width:1"/>
<circle cx="870" cy="550" r="2" style="fill-opacity:0.5;fill:rgb(0,96,0);stroke:rgb(0,96,0);stroke-width:1"/>
<circle cx="100" cy="792" r="3" style="fill-opacity:0.5;fill:rgb(0,96,0);stroke:rgb(0,96,0);stroke-width:1"/>
<circle cx="100" cy="765" r="2" style="fill-opacity:0.5;fill:rgb(0,96,0);stroke:rgb(0,96,0);stroke-width:1"/>
<circle cx="52" cy="550" r="3" style="fill-opacity:0.5;fill:rgb(0,96,0);stroke:rgb(0,96,0);stroke-width:1"/>
<circle cx="79" cy="550" r="2" style="fill-opacity:0.5;fill:rgb(0,96,0);stroke:rgb(0,96,0);stroke-width:1"/>
<circle cx="897" cy="162" r="3" style="fill-opacity:0.5;fill:rgb(0,96,0);stroke:rgb(0,96,0);stroke-width:1"/>
<circle cx="870" cy="162" r="2" style="fill-opacity:0.5;fill:rgb(0,96,0);stroke:rgb(0,96,0);stroke-width:1"/>
<circle cx="52" cy="162" r="3" style="fill-opacity:0.5;fill:rgb(0,96,0);stroke:rgb(0,96,0);stroke-width:1"/>
<circle cx="79" cy="162" r="2" style="fill-opacity:0.5;fill:rgb(0,96,0);stroke:rgb(0,96,0);stroke-width:1"/>
<circle cx="535" cy="352" r="3" style="fill-opacity:0.5;fill:rgb(0,96,0);stroke:rgb(0,96,0);stroke-width:1"/>
<circle cx="535" cy="325" r="2" style="fill-opacity:0.5;fill:rgb(0,96,0);stroke:rgb(0,96,0);stroke-width:1"/>
<circle cx="652" cy="405" r="3" style="fill-opacity:0.5;fill:rgb(0,96,0);stroke:rgb(0,96,0);stroke-width:1"/>
<circle cx="679" cy="405" r="2" style="fill-opacity:0.5;fill:rgb(0,96,0);stroke:rgb(0,96,0);stroke-width:1"/>
<circle cx="297" cy="405" r="3" style="fill-opacity:0.5;fill:rgb(0,96,0);stroke:rgb(0,96,0);stroke-width:1"/>
<circle cx="270" cy="405" r="2" style="fill-opacity:0.5;fill:rgb(0,96,0);stroke:rgb(0,96,0);stroke-width:1"/>
<circle cx="700" cy="792" r="3" style="fill-opacity:0.5;fill:rgb(0,96,0);stroke:rgb(0,96,0);stroke-width:1"/>
<circle cx="700" cy="765" r="2" style="fill-opacity:0.5;fill:rgb(0,96,0);stroke:rgb(0,96,0);stroke-width:1"/>
<circle cx="250" cy="792" r="3" style="fill-opacity:0.5;fill:rgb(0,96,0);stroke:rgb(0,96,0);stroke-width:1"/>
<circle cx="250" cy="765" r="2" style="fill-opacity:0.5;fill:rgb(0,96,0);stroke:rgb(0,96,0);stroke-width:1"/>
<g fill-rule="evenodd"><path d="M 505,230 L 505,380 L 385,380 L 385,230 L 505,230 z " style="opacity:0.8;fill:none;stroke:rgb(128,128,128);stroke-width:2;stroke-dasharray:1,7;stroke-linecap:round"/></g>
<g fill-rule="evenodd"><path d="M 745,430 L 745,580 L 625,580 L 625,430 L 745,430 z " style="opacity:0.8;fill:none;stroke:rgb(128,128,128);stroke-width:2;stroke-dasharray:1,7;stroke-linecap:round"/></g>
<g fill-rule="evenodd"><path d="M 325,430 L 325,580 L 205,580 L 205,430 L 325,430 z " style="opacity:0.8;fill:none;stroke:rgb(128,128,128);stroke-width:2;stroke-dasharray:1,7;stroke-linecap:round"/></g>
<g fill-rule="evenodd"><path d="M 745,580 L 745,730 L 625,730 L 625,580 L 745,580 z " style="opacity:0.8;fill:none;stroke:rgb(128,128,128);stroke-width:2;stroke-dasharray:1,7;stroke-linecap:round"/></g>
<g fill-rule="evenodd"><path d="M 325,580 L 325,730 L 205,730 L 205,580 L 325,580 z " style="opacity:0.8;fill:none;stroke:rgb(128,128,128);stroke-width:2;stroke-dasharray:1,7;stroke-linecap:round"/></g>
<g fill-rule="evenodd"><path d="M 535,45 L 535,200 L 415,200 L 415,45 L 535,45 z " style="opacity:0.8;fill:none;stroke:rgb(128,128,128);stroke-width:2;stroke-dasharray:1,7;stroke-linecap:round"/></g>
<g fill-rule="evenodd"><path d="M 655,45 L 655,200 L 535,200 L 535,45 L 655,45 z " style="opacity:0.8;fill:none;stroke:rgb(128,128,128);stroke-width:2;stroke-dasharray:1,7;stroke-linecap:round"/></g>
<g fill-rule="evenodd"><path d="M 775,45 L 775,200 L 655,200 L 655,45 L 775,45 z " style="opacity:0.8;fill:none;stroke:rgb(128,128,128);stroke-width:2;stroke-dasharray:1,7;stroke-linecap:round"/></g>
<g fill-rule="evenodd"><path d="M 415,45 L 415,200 L 295,200 L 295,45 L 415,45 z " style="opacity:0.8;fill:none;stroke:rgb(128,128,128);stroke-width:2;stroke-dasharray:1,7;stroke-linecap:round"/></g>
<g fill-rule="evenodd"><path d="M 295,45 L 295,200 L 175,200 L 175,45 L 295,45 z " style="opacity:0.8;fill:none;stroke:rgb(128,128,128);stroke-width:2;stroke-dasharray:1,7;stroke-linecap:round"/></g>
<g fill-rule="evenodd"><path d="M 745,230 L 745,345 L 745,345 L 745,380 L 565,380 L 565,230 L 745,230 z " style="opacity:0.8;fill:none;stroke:rgb(128,128,128);stroke-width:2;stroke-dasharray:1,7;stroke-linecap:round"/></g>
<g fill-rule="evenodd"><path d="M 385,230 L 385,380 L 205,380 L 205,230 L 385,230 z " style="opacity:0.8;fill:none;stroke:rgb(128,128,128);stroke-width:2;stroke-dasharray:1,7;stroke-linecap:round"/></g>
<g fill-rule="evenodd"><path d="M 925,280 L 925,460 L 775,460 L 775,280 L 925,280 z " style="opacity:0.8;fill:none;stroke:rgb(128,128,128);stroke-width:2;stroke-dasharray:1,7;stroke-linecap:round"/></g>
<g fill-rule="evenodd"><path d="M 175,280 L 175,460 L 25,460 L 25,280 L 175,280 z " style="opacity:0.8;fill:none;stroke:rgb(128,128,128);stroke-width:2;stroke-dasharray:1,7;stroke-linecap:round"/></g>
<g fill-rule="evenodd"><path d="M 925,640 L 925,820 L 775,820 L 775,640 L 925,640 z " style="opacity:0.8;fill:none;stroke:rgb(128,128,128);stroke-width:2;stroke-dasharray:1,7;stroke-linecap:round"/></g>
<g fill-rule="evenodd"><path d="M 925,460 L 925,640 L 775,640 L 775,460 L 925,460 z " style="opacity:0.8;fill:none;stroke:rgb(128,128,128);stroke-width:2;stroke-dasharray:1,7;stroke-linecap:round"/></g>
<g fill-rule="evenodd"><path d="M 175,640 L 175,820 L 25,820 L 25,640 L 175,640 z " style="opacity:0.8;fill:none;stroke:rgb(128,128,128);stroke-width:2;stroke-dasharray:1,7;stroke-linecap:round"/></g>
<g fill-rule="evenodd"><path d="M 175,460 L 175,640 L 25,640 L 25,460 L 175,460 z " style="opacity:0.8;fill:none;stroke:rgb(128,128,128);stroke-width:2;stroke-dasharray:1,7;stroke-linecap:round"/></g>
<g fill-rule="evenodd"><path d="M 925,45 L 925,280 L 775,280 L 775,45 L 925,45 z " style="opacity:0.8;fill:none;stroke:rgb(128,128,128);stroke-width:2;stroke-dasharray:1,7;stroke-linecap:round"/></g>
<g fill-rule="evenodd"><path d="M 175,45 L 175,280 L 25,280 L 25,45 L 175,45 z " style="opacity:0.8;fill:none;stroke:rgb(128,128,128);stroke-width:2;stroke-dasharray:1,7;stroke-linecap:round"/></g>
<g fill-rule="evenodd"><path d="M 775,200 L 775,345 L 775,345 L 775,730 L 745,730 L 745,430 L 715,430 L 715,380 L 745,380 L 745,230 L 565,230 L 565,305 L 530,305 L 530,230 L 205,230 L 205,380 L 235,380 L 235,430 L 205,430 L 205,730 L 175,730 L 175,200 L 775,200 z " style="opacity:0.8;fill:none;stroke:rgb(128,128,128);stroke-width:2;stroke-dasharray:1,7;stroke-linecap:round"/></g>
<g fill-rule="evenodd"><path d="M 530,255 L 530,280 L 505,280 L 505,255 L 530,255 z " style="opacity:0.8;fill:none;stroke:rgb(128,128,128);stroke-width:2;stroke-dasharray:1,7;stroke-linecap:round"/></g>
<g fill-rule="evenodd"><path d="M 530,230 L 530,255 L 505,255 L 505,230 L 530,230 z " style="opacity:0.8;fill:none;stroke:rgb(128,128,128);stroke-width:2;stroke-dasharray:1,7;stroke-linecap:round"/></g>
<g fill-rule="evenodd"><path d="M 530,280 L 530,305 L 505,305 L 505,280 L 530,280 z " style="opacity:0.8;fill:none;stroke:rgb(128,128,128);stroke-width:2;stroke-dasharray:1,7;stroke-linecap:round"/></g>
<g fill-rule="evenodd"><path d="M 565,305 L 565,380 L 505,380 L 505,305 L 565,305 z " style="opacity:0.8;fill:none;stroke:rgb(128,128,128);stroke-width:2;stroke-dasharray:1,7;stroke-linecap:round"/></g>
<g fill-rule="evenodd"><path d="M 715,380 L 715,430 L 625,430 L 625,380 L 715,380 z " style="opacity:0.8;fill:none;stroke:rgb(128,128,128);stroke-width:2;stroke-dasharray:1,7;stroke-linecap:round"/></g>
<g fill-rule="evenodd"><path d="M 325,380 L 325,430 L 235,430 L 235,380 L 325,380 z " style="opacity:0.8;fill:none;stroke:rgb(128,128,128);stroke-width:2;stroke-dasharray:1,7;stroke-linecap:round"/></g>
<g fill-rule="evenodd"><path d="M 775,730 L 775,820 L 625,820 L 625,730 L 775,730 z " style="opacity:0.8;fill:none;stroke:rgb(128,128,128);stroke-width:2;stroke-dasharray:1,7;stroke-linecap:round"/></g>
<g fill-rule="evenodd"><path d="M 325,730 L 325,820 L 175,820 L 175,730 L 325,730 z " style="opacity:0.8;fill:none;stroke:rgb(128,128,128);stroke-width:2;stroke-dasharray:1,7;stroke-linecap:round"/></g>
<text style="font-family:sans-serif;font-size:16px;text-anchor:middle;fill:rgb(128,0,0)" x="445" y="310">F2-4 1-Bed Core N</text>
<text style="font-family:sans-serif;font-size:16px;text-anchor:middle;fill:rgb(128,0,0)" x="685" y="510">F2-4 1-Bed Core NE</text>
<text style="font-family:sans-serif;font-size:16px;text-anchor:middle;fill:rgb(128,0,0)" x="265" y="510">F2-4 1-Bed Core NW</text>
<text style="font-family:sans-serif;font-size:16px;text-anchor:middle;fill:rgb(128,0,0)" x="685" y="660">F2-4 1-Bed Core SE</text>
<text style="font-family:sans-serif;font-size:16px;text-anchor:middle;fill:rgb(128,0,0)" x="265" y="660">F2-4 1-Bed Core SW</text>
<text style="font-family:sans-serif;font-size:16px;text-anchor:middle;fill:rgb(128,0,0)" x="475" y="127">F2-4 1-Bed N</text>
<text style="font-family:sans-serif;font-size:16px;text-anchor:middle;fill:rgb(128,0,0)" x="595" y="127">F2-4 1-Bed NE Core</text>
<text style="font-family:sans-serif;font-size:16px;text-anchor:middle;fill:rgb(128,0,0)" x="715" y="127">F2-4 1-Bed NE Outer</text>
<text style="font-family:sans-serif;font-size:16px;text-anchor:middle;fill:rgb(128,0,0)" x="355" y="127">F2-4 1-Bed NW Core</text>
<text style="font-family:sans-serif;font-size:16px;text-anchor:middle;fill:rgb(128,0,0)" x="235" y="127">F2-4 1-Bed NW Outer</text>
<text style="font-family:sans-serif;font-size:16px;text-anchor:middle;fill:rgb(128,0,0)" x="655" y="310">F2-4 2-Bed Core NE</text>
<text style="font-family:sans-serif;font-size:16px;text-anchor:middle;fill:rgb(128,0,0)" x="295" y="310">F2-4 2-Bed Core NW</text>
<text style="font-family:sans-serif;font-size:16px;text-anchor:middle;fill:rgb(128,0,0)" x="850" y="375">F2-4 2-Bed NE</text>
<text style="font-family:sans-serif;font-size:16px;text-anchor:middle;fill:rgb(128,0,0)" x="100" y="375">F2-4 2-Bed NW</text>
<text style="font-family:sans-serif;font-size:16px;text-anchor:middle;fill:rgb(128,0,0)" x="850" y="735">F2-4 2-Bed SE</text>
<text style="font-family:sans-serif;font-size:16px;text-anchor:middle;fill:rgb(128,0,0)" x="850" y="555">F2-4 2-Bed SE Core</text>
<text style="font-family:sans-serif;font-size:16px;text-anchor:middle;fill:rgb(128,0,0)" x="100" y="735">F2-4 2-Bed SW</text>
<text style="font-family:sans-serif;font-size:16px;text-anchor:middle;fill:rgb(128,0,0)" x="100" y="555">F2-4 2-Bed SW Core</text>
<text style="font-family:sans-serif;font-size:16px;text-anchor:middle;fill:rgb(128,0,0)" x="850" y="167">F2-4 3-Bed NE</text>
<text style="font-family:sans-serif;font-size:16px;text-anchor:middle;fill:rgb(128,0,0)" x="100" y="167">F2-4 3-Bed NW</text>
<text style="font-family:sans-serif;font-size:16px;text-anchor:middle;fill:rgb(128,0,0)" x="475" y="470">F2-4 Corridor</text>
<text style="font-family:sans-serif;font-size:16px;text-anchor:middle;fill:rgb(128,0,0)" x="517" y="272">F2-4 Elevator Core</text>
<text style="font-family:sans-serif;font-size:16px;text-anchor:middle;fill:rgb(128,0,0)" x="517" y="247">F2-4 Elevator N</text>
<text style="font-family:sans-serif;font-size:16px;text-anchor:middle;fill:rgb(128,0,0)" x="517" y="297">F2-4 Elevator S</text>
<text style="font-family:sans-serif;font-size:16px;text-anchor:middle;fill:rgb(128,0,0)" x="535" y="347">F2-4 Laundry</text>
<text style="font-family:sans-serif;font-size:16px;text-anchor:middle;fill:rgb(128,0,0)" x="670" y="410">F2-4 Stair E</text>
<text style="font-family:sans-serif;font-size:16px;text-anchor:middle;fill:rgb(128,0,0)" x="280" y="410">F2-4 Stair W</text>
<text style="font-family:sans-serif;font-size:16px;text-anchor:middle;fill:rgb(128,0,0)" x="700" y="780">F2-4 Studio SE</text>
<text style="font-family:sans-serif;font-size:16px;text-anchor:middle;fill:rgb(128,0,0)" x="250" y="780">F2-4 Studio SW</text>
<text style="font-family:sans-serif;font-size:16px;fill:rgb(128,0,0)" x="5" y="15">BuildingStory 'Building Story Residential Floors 2-4':  glazings and final daylit areas and control positions</text>
</svg>
