<?xml version="1.0" standalone="no"?>
<!DOCTYPE svg PUBLIC "-//W3C//DTD SVG 1.1//EN"
"http://www.w3.org/Graphics/SVG/1.1/DTD/svg11.dtd">
<svg width="100%" height="100%" version="1.1"
xmlns="http://www.w3.org/2000/svg"
xmlns:xlink="http://www.w3.org/1999/xlink">
<g fill-rule="evenodd"><path d="M 0,400 L 0,20 L 1000,20 L 1000,400 L 0,400 z " style="opacity:0.8;fill:none;stroke:rgb(205,205,205);stroke-width:1;stroke-linecap:square"/></g>
<g fill-rule="evenodd"><path d="M 795,80 L 665,80 L 665,45 L 795,45 L 795,80 z " style="fill-rule:nonzero;fill-opacity:0.3;fill:rgb(255,255,64);stroke:rgb(255,255,64);stroke-width:2;"/></g>
<g fill-rule="evenodd"><path d="M 795,115 L 665,115 L 665,80 L 795,80 L 795,115 z " style="fill-rule:nonzero;fill-opacity:0.3;fill:rgb(192,192,48);stroke:rgb(192,192,48);stroke-width:2;"/></g>
<g fill-rule="evenodd"><path d="M 665,44 L 794,44 L 794,45 L 665,45 L 665,44 z " style="fill-rule:nonzero;fill-opacity:0.7;fill:rgb(0,128,255);stroke:rgb(0,128,255);stroke-width:3;"/></g>
<g fill-rule="evenodd"><path d="M 305,80 L 175,80 L 175,45 L 305,45 L 305,80 z " style="fill-rule:nonzero;fill-opacity:0.3;fill:rgb(255,255,64);stroke:rgb(255,255,64);stroke-width:2;"/></g>
<g fill-rule="evenodd"><path d="M 305,115 L 175,115 L 175,80 L 305,80 L 305,115 z " style="fill-rule:nonzero;fill-opacity:0.3;fill:rgb(192,192,48);stroke:rgb(192,192,48);stroke-width:2;"/></g>
<g fill-rule="evenodd"><path d="M 175,44 L 304,44 L 304,45 L 175,45 L 175,44 z " style="fill-rule:nonzero;fill-opacity:0.7;fill:rgb(0,128,255);stroke:rgb(0,128,255);stroke-width:3;"/></g>
<g fill-rule="evenodd"><path d="M 695,375 L 565,375 L 565,339 L 695,339 L 695,375 z " style="fill-rule:nonzero;fill-opacity:0.3;fill:rgb(255,255,64);stroke:rgb(255,255,64);stroke-width:2;"/></g>
<g fill-rule="evenodd"><path d="M 695,304 L 695,339 L 565,339 L 565,304 L 695,304 z " style="fill-rule:nonzero;fill-opacity:0.3;fill:rgb(192,192,48);stroke:rgb(192,192,48);stroke-width:2;"/></g>
<g fill-rule="evenodd"><path d="M 694,375 L 565,375 L 565,374 L 694,374 L 694,375 z " style="fill-rule:nonzero;fill-opacity:0.7;fill:rgb(0,128,255);stroke:rgb(0,128,255);stroke-width:3;"/></g>
<g fill-rule="evenodd"><path d="M 825,375 L 695,375 L 695,339 L 825,339 L 825,375 z " style="fill-rule:nonzero;fill-opacity:0.3;fill:rgb(255,255,64);stroke:rgb(255,255,64);stroke-width:2;"/></g>
<g fill-rule="evenodd"><path d="M 825,304 L 825,339 L 695,339 L 695,304 L 825,304 z " style="fill-rule:nonzero;fill-opacity:0.3;fill:rgb(192,192,48);stroke:rgb(192,192,48);stroke-width:2;"/></g>
<g fill-rule="evenodd"><path d="M 824,375 L 695,375 L 695,374 L 824,374 L 824,375 z " style="fill-rule:nonzero;fill-opacity:0.7;fill:rgb(0,128,255);stroke:rgb(0,128,255);stroke-width:3;"/></g>
<g fill-rule="evenodd"><path d="M 465,375 L 335,375 L 335,339 L 465,339 L 465,375 z " style="fill-rule:nonzero;fill-opacity:0.3;fill:rgb(255,255,64);stroke:rgb(255,255,64);stroke-width:2;"/></g>
<g fill-rule="evenodd"><path d="M 465,304 L 465,339 L 335,339 L 335,304 L 465,304 z " style="fill-rule:nonzero;fill-opacity:0.3;fill:rgb(192,192,48);stroke:rgb(192,192,48);stroke-width:2;"/></g>
<g fill-rule="evenodd"><path d="M 464,375 L 335,375 L 335,374 L 464,374 L 464,375 z " style="fill-rule:nonzero;fill-opacity:0.7;fill:rgb(0,128,255);stroke:rgb(0,128,255);stroke-width:3;"/></g>
<g fill-rule="evenodd"><path d="M 335,375 L 205,375 L 205,339 L 335,339 L 335,375 z " style="fill-rule:nonzero;fill-opacity:0.3;fill:rgb(255,255,64);stroke:rgb(255,255,64);stroke-width:2;"/></g>
<g fill-rule="evenodd"><path d="M 335,304 L 335,339 L 205,339 L 205,304 L 335,304 z " style="fill-rule:nonzero;fill-opacity:0.3;fill:rgb(192,192,48);stroke:rgb(192,192,48);stroke-width:2;"/></g>
<g fill-rule="evenodd"><path d="M 334,375 L 205,375 L 205,374 L 334,374 L 334,375 z " style="fill-rule:nonzero;fill-opacity:0.7;fill:rgb(0,128,255);stroke:rgb(0,128,255);stroke-width:3;"/></g>
<g fill-rule="evenodd"><path d="M 485,80 L 305,80 L 305,45 L 485,45 L 485,80 z " style="fill-rule:nonzero;fill-opacity:0.3;fill:rgb(255,255,64);stroke:rgb(255,255,64);stroke-width:2;"/></g>
<g fill-rule="evenodd"><path d="M 485,115 L 305,115 L 305,80 L 485,80 L 485,115 z " style="fill-rule:nonzero;fill-opacity:0.3;fill:rgb(192,192,48);stroke:rgb(192,192,48);stroke-width:2;"/></g>
<g fill-rule="evenodd"><path d="M 305,44 L 484,44 L 484,45 L 305,45 L 305,44 z " style="fill-rule:nonzero;fill-opacity:0.7;fill:rgb(0,128,255);stroke:rgb(0,128,255);stroke-width:3;"/></g>
<g fill-rule="evenodd"><path d="M 975,80 L 795,80 L 795,45 L 975,45 L 975,80 z " style="fill-rule:nonzero;fill-opacity:0.3;fill:rgb(255,255,64);stroke:rgb(255,255,64);stroke-width:2;"/></g>
<g fill-rule="evenodd"><path d="M 939,115 L 795,115 L 795,80 L 939,80 L 939,115 z " style="fill-rule:nonzero;fill-opacity:0.3;fill:rgb(192,192,48);stroke:rgb(192,192,48);stroke-width:2;"/></g>
<g fill-rule="evenodd"><path d="M 795,44 L 974,44 L 974,45 L 795,45 L 795,44 z " style="fill-rule:nonzero;fill-opacity:0.7;fill:rgb(0,128,255);stroke:rgb(0,128,255);stroke-width:3;"/></g>
<g fill-rule="evenodd"><path d="M 939,80 L 975,80 L 975,195 L 939,195 L 939,80 z " style="fill-rule:nonzero;fill-opacity:0.3;fill:rgb(255,255,64);stroke:rgb(255,255,64);stroke-width:2;"/></g>
<g fill-rule="evenodd"><path d="M 939,115 L 939,195 L 904,195 L 904,115 L 939,115 z " style="fill-rule:nonzero;fill-opacity:0.3;fill:rgb(192,192,48);stroke:rgb(192,192,48);stroke-width:2;"/></g>
<g fill-rule="evenodd"><path d="M 975,45 L 975,194 L 974,194 L 974,45 L 975,45 z " style="fill-rule:nonzero;fill-opacity:0.7;fill:rgb(0,128,255);stroke:rgb(0,128,255);stroke-width:3;"/></g>
<g fill-rule="evenodd"><path d="M 25,225 L 25,45 L 59,45 L 60,225 L 25,225 z " style="fill-rule:nonzero;fill-opacity:0.3;fill:rgb(255,255,64);stroke:rgb(255,255,64);stroke-width:2;"/></g>
<g fill-rule="evenodd"><path d="M 60,80 L 95,80 L 95,225 L 60,225 L 60,80 z " style="fill-rule:nonzero;fill-opacity:0.3;fill:rgb(192,192,48);stroke:rgb(192,192,48);stroke-width:2;"/></g>
<g fill-rule="evenodd"><path d="M 24,224 L 24,45 L 25,45 L 25,224 L 24,224 z " style="fill-rule:nonzero;fill-opacity:0.7;fill:rgb(0,128,255);stroke:rgb(0,128,255);stroke-width:3;"/></g>
<g fill-rule="evenodd"><path d="M 59,80 L 59,45 L 175,45 L 175,80 L 59,80 z " style="fill-rule:nonzero;fill-opacity:0.3;fill:rgb(255,255,64);stroke:rgb(255,255,64);stroke-width:2;"/></g>
<g fill-rule="evenodd"><path d="M 60,80 L 60,80 z " style="fill-rule:nonzero;fill-opacity:0.3;fill:rgb(192,192,48);stroke:rgb(192,192,48);stroke-width:2;"/></g>
<g fill-rule="evenodd"><path d="M 95,80 L 175,80 L 175,115 L 95,115 L 95,80 z " style="fill-rule:nonzero;fill-opacity:0.3;fill:rgb(192,192,48);stroke:rgb(192,192,48);stroke-width:2;"/></g>
<g fill-rule="evenodd"><path d="M 25,44 L 174,44 L 174,45 L 25,45 L 25,44 z " style="fill-rule:nonzero;fill-opacity:0.7;fill:rgb(0,128,255);stroke:rgb(0,128,255);stroke-width:3;"/></g>
<g fill-rule="evenodd"><path d="M 975,375 L 940,375 L 940,195 L 975,195 L 975,375 z " style="fill-rule:nonzero;fill-opacity:0.3;fill:rgb(255,255,64);stroke:rgb(255,255,64);stroke-width:2;"/></g>
<g fill-rule="evenodd"><path d="M 904,339 L 904,195 L 940,195 L 940,339 L 904,339 z " style="fill-rule:nonzero;fill-opacity:0.3;fill:rgb(192,192,48);stroke:rgb(192,192,48);stroke-width:2;"/></g>
<g fill-rule="evenodd"><path d="M 975,195 L 975,374 L 974,374 L 974,195 L 975,195 z " style="fill-rule:nonzero;fill-opacity:0.7;fill:rgb(0,128,255);stroke:rgb(0,128,255);stroke-width:3;"/></g>
<g fill-rule="evenodd"><path d="M 940,375 L 825,375 L 825,339 L 940,339 L 940,375 z " style="fill-rule:nonzero;fill-opacity:0.3;fill:rgb(255,255,64);stroke:rgb(255,255,64);stroke-width:2;"/></g>
<g fill-rule="evenodd"><path d="M 825,339 L 825,304 L 904,304 L 904,339 L 825,339 z " style="fill-rule:nonzero;fill-opacity:0.3;fill:rgb(192,192,48);stroke:rgb(192,192,48);stroke-width:2;"/></g>
<g fill-rule="evenodd"><path d="M 974,375 L 825,375 L 825,374 L 974,374 L 974,375 z " style="fill-rule:nonzero;fill-opacity:0.7;fill:rgb(0,128,255);stroke:rgb(0,128,255);stroke-width:3;"/></g>
<g fill-rule="evenodd"><path d="M 205,375 L 25,375 L 25,340 L 205,340 L 205,375 z " style="fill-rule:nonzero;fill-opacity:0.3;fill:rgb(255,255,64);stroke:rgb(255,255,64);stroke-width:2;"/></g>
<g fill-rule="evenodd"><path d="M 60,340 L 60,304 L 205,304 L 205,340 L 60,340 z " style="fill-rule:nonzero;fill-opacity:0.3;fill:rgb(192,192,48);stroke:rgb(192,192,48);stroke-width:2;"/></g>
<g fill-rule="evenodd"><path d="M 204,375 L 25,375 L 25,374 L 204,374 L 204,375 z " style="fill-rule:nonzero;fill-opacity:0.7;fill:rgb(0,128,255);stroke:rgb(0,128,255);stroke-width:3;"/></g>
<g fill-rule="evenodd"><path d="M 25,340 L 25,225 L 60,225 L 60,340 L 25,340 z " style="fill-rule:nonzero;fill-opacity:0.3;fill:rgb(255,255,64);stroke:rgb(255,255,64);stroke-width:2;"/></g>
<g fill-rule="evenodd"><path d="M 95,304 L 60,304 L 60,225 L 95,225 L 95,304M 95,314 L 95,314 z " style="fill-rule:nonzero;fill-opacity:0.3;fill:rgb(192,192,48);stroke:rgb(192,192,48);stroke-width:2;"/></g>
<g fill-rule="evenodd"><path d="M 24,374 L 24,225 L 25,225 L 25,374 L 24,374 z " style="fill-rule:nonzero;fill-opacity:0.7;fill:rgb(0,128,255);stroke:rgb(0,128,255);stroke-width:3;"/></g>
<g fill-rule="evenodd"><path d="M 565,375 L 515,375 L 515,339 L 565,339 L 565,375 z " style="fill-rule:nonzero;fill-opacity:0.3;fill:rgb(255,255,64);stroke:rgb(255,255,64);stroke-width:2;"/></g>
<g fill-rule="evenodd"><path d="M 565,304 L 565,339 L 515,339 L 515,304 L 565,304 z " style="fill-rule:nonzero;fill-opacity:0.3;fill:rgb(192,192,48);stroke:rgb(192,192,48);stroke-width:2;"/></g>
<g fill-rule="evenodd"><path d="M 564,375 L 515,375 L 515,374 L 564,374 L 564,375 z " style="fill-rule:nonzero;fill-opacity:0.7;fill:rgb(0,128,255);stroke:rgb(0,128,255);stroke-width:3;"/></g>
<g fill-rule="evenodd"><path d="M 515,375 L 465,375 L 465,339 L 515,339 L 515,375 z " style="fill-rule:nonzero;fill-opacity:0.3;fill:rgb(255,255,64);stroke:rgb(255,255,64);stroke-width:2;"/></g>
<g fill-rule="evenodd"><path d="M 515,304 L 515,339 L 465,339 L 465,304 L 515,304 z " style="fill-rule:nonzero;fill-opacity:0.3;fill:rgb(192,192,48);stroke:rgb(192,192,48);stroke-width:2;"/></g>
<g fill-rule="evenodd"><path d="M 514,375 L 465,375 L 465,374 L 514,374 L 514,375 z " style="fill-rule:nonzero;fill-opacity:0.7;fill:rgb(0,128,255);stroke:rgb(0,128,255);stroke-width:3;"/></g>
<g fill-rule="evenodd"><path d="M 665,80 L 575,80 L 575,45 L 665,45 L 665,80 z " style="fill-rule:nonzero;fill-opacity:0.3;fill:rgb(255,255,64);stroke:rgb(255,255,64);stroke-width:2;"/></g>
<g fill-rule="evenodd"><path d="M 665,115 L 575,115 L 575,80 L 665,80 L 665,115 z " style="fill-rule:nonzero;fill-opacity:0.3;fill:rgb(192,192,48);stroke:rgb(192,192,48);stroke-width:2;"/></g>
<g fill-rule="evenodd"><path d="M 575,44 L 664,44 L 664,45 L 575,45 L 575,44 z " style="fill-rule:nonzero;fill-opacity:0.7;fill:rgb(0,128,255);stroke:rgb(0,128,255);stroke-width:3;"/></g>
<g fill-rule="evenodd"><path d="M 575,80 L 485,80 L 485,45 L 575,45 L 575,80 z " style="fill-rule:nonzero;fill-opacity:0.3;fill:rgb(255,255,64);stroke:rgb(255,255,64);stroke-width:2;"/></g>
<g fill-rule="evenodd"><path d="M 575,115 L 485,115 L 485,80 L 575,80 L 575,115 z " style="fill-rule:nonzero;fill-opacity:0.3;fill:rgb(192,192,48);stroke:rgb(192,192,48);stroke-width:2;"/></g>
<g fill-rule="evenodd"><path d="M 485,44 L 574,44 L 574,45 L 485,45 L 485,44 z " style="fill-rule:nonzero;fill-opacity:0.7;fill:rgb(0,128,255);stroke:rgb(0,128,255);stroke-width:3;"/></g>
<circle cx="730" cy="80" r="3" style="fill-opacity:0.5;fill:rgb(0,96,0);stroke:rgb(0,96,0);stroke-width:1"/>
<circle cx="730" cy="115" r="2" style="fill-opacity:0.5;fill:rgb(0,96,0);stroke:rgb(0,96,0);stroke-width:1"/>
<circle cx="240" cy="80" r="3" style="fill-opacity:0.5;fill:rgb(0,96,0);stroke:rgb(0,96,0);stroke-width:1"/>
<circle cx="240" cy="115" r="2" style="fill-opacity:0.5;fill:rgb(0,96,0);stroke:rgb(0,96,0);stroke-width:1"/>
<circle cx="630" cy="339" r="3" style="fill-opacity:0.5;fill:rgb(0,96,0);stroke:rgb(0,96,0);stroke-width:1"/>
<circle cx="630" cy="304" r="2" style="fill-opacity:0.5;fill:rgb(0,96,0);stroke:rgb(0,96,0);stroke-width:1"/>
<circle cx="760" cy="339" r="3" style="fill-opacity:0.5;fill:rgb(0,96,0);stroke:rgb(0,96,0);stroke-width:1"/>
<circle cx="760" cy="304" r="2" style="fill-opacity:0.5;fill:rgb(0,96,0);stroke:rgb(0,96,0);stroke-width:1"/>
<circle cx="400" cy="339" r="3" style="fill-opacity:0.5;fill:rgb(0,96,0);stroke:rgb(0,96,0);stroke-width:1"/>
<circle cx="400" cy="304" r="2" style="fill-opacity:0.5;fill:rgb(0,96,0);stroke:rgb(0,96,0);stroke-width:1"/>
<circle cx="270" cy="339" r="3" style="fill-opacity:0.5;fill:rgb(0,96,0);stroke:rgb(0,96,0);stroke-width:1"/>
<circle cx="270" cy="304" r="2" style="fill-opacity:0.5;fill:rgb(0,96,0);stroke:rgb(0,96,0);stroke-width:1"/>
<circle cx="395" cy="80" r="3" style="fill-opacity:0.5;fill:rgb(0,96,0);stroke:rgb(0,96,0);stroke-width:1"/>
<circle cx="395" cy="115" r="2" style="fill-opacity:0.5;fill:rgb(0,96,0);stroke:rgb(0,96,0);stroke-width:1"/>
<circle cx="939" cy="120" r="3" style="fill-opacity:0.5;fill:rgb(0,96,0);stroke:rgb(0,96,0);stroke-width:1"/>
<circle cx="904" cy="120" r="2" style="fill-opacity:0.5;fill:rgb(0,96,0);stroke:rgb(0,96,0);stroke-width:1"/>
<circle cx="60" cy="135" r="3" style="fill-opacity:0.5;fill:rgb(0,96,0);stroke:rgb(0,96,0);stroke-width:1"/>
<circle cx="95" cy="135" r="2" style="fill-opacity:0.5;fill:rgb(0,96,0);stroke:rgb(0,96,0);stroke-width:1"/>
<circle cx="900" cy="339" r="3" style="fill-opacity:0.5;fill:rgb(0,96,0);stroke:rgb(0,96,0);stroke-width:1"/>
<circle cx="900" cy="304" r="2" style="fill-opacity:0.5;fill:rgb(0,96,0);stroke:rgb(0,96,0);stroke-width:1"/>
<circle cx="115" cy="339" r="3" style="fill-opacity:0.5;fill:rgb(0,96,0);stroke:rgb(0,96,0);stroke-width:1"/>
<circle cx="115" cy="304" r="2" style="fill-opacity:0.5;fill:rgb(0,96,0);stroke:rgb(0,96,0);stroke-width:1"/>
<circle cx="540" cy="339" r="3" style="fill-opacity:0.5;fill:rgb(0,96,0);stroke:rgb(0,96,0);stroke-width:1"/>
<circle cx="540" cy="304" r="2" style="fill-opacity:0.5;fill:rgb(0,96,0);stroke:rgb(0,96,0);stroke-width:1"/>
<circle cx="490" cy="339" r="3" style="fill-opacity:0.5;fill:rgb(0,96,0);stroke:rgb(0,96,0);stroke-width:1"/>
<circle cx="490" cy="304" r="2" style="fill-opacity:0.5;fill:rgb(0,96,0);stroke:rgb(0,96,0);stroke-width:1"/>
<circle cx="620" cy="80" r="3" style="fill-opacity:0.5;fill:rgb(0,96,0);stroke:rgb(0,96,0);stroke-width:1"/>
<circle cx="620" cy="115" r="2" style="fill-opacity:0.5;fill:rgb(0,96,0);stroke:rgb(0,96,0);stroke-width:1"/>
<circle cx="530" cy="80" r="3" style="fill-opacity:0.5;fill:rgb(0,96,0);stroke:rgb(0,96,0);stroke-width:1"/>
<circle cx="530" cy="115" r="2" style="fill-opacity:0.5;fill:rgb(0,96,0);stroke:rgb(0,96,0);stroke-width:1"/>
<g fill-rule="evenodd"><path d="M 795,45 L 795,195 L 665,195 L 665,45 L 795,45 z " style="opacity:0.8;fill:none;stroke:rgb(128,128,128);stroke-width:2;stroke-dasharray:1,7;stroke-linecap:round"/></g>
<g fill-rule="evenodd"><path d="M 305,45 L 305,195 L 175,195 L 175,45 L 305,45 z " style="opacity:0.8;fill:none;stroke:rgb(128,128,128);stroke-width:2;stroke-dasharray:1,7;stroke-linecap:round"/></g>
<g fill-rule="evenodd"><path d="M 695,225 L 695,375 L 565,375 L 565,225 L 695,225 z " style="opacity:0.8;fill:none;stroke:rgb(128,128,128);stroke-width:2;stroke-dasharray:1,7;stroke-linecap:round"/></g>
<g fill-rule="evenodd"><path d="M 825,225 L 825,375 L 695,375 L 695,225 L 825,225 z " style="opacity:0.8;fill:none;stroke:rgb(128,128,128);stroke-width:2;stroke-dasharray:1,7;stroke-linecap:round"/></g>
<g fill-rule="evenodd"><path d="M 465,225 L 465,375 L 335,375 L 335,225 L 465,225 z " style="opacity:0.8;fill:none;stroke:rgb(128,128,128);stroke-width:2;stroke-dasharray:1,7;stroke-linecap:round"/></g>
<g fill-rule="evenodd"><path d="M 335,225 L 335,375 L 205,375 L 205,225 L 335,225 z " style="opacity:0.8;fill:none;stroke:rgb(128,128,128);stroke-width:2;stroke-dasharray:1,7;stroke-linecap:round"/></g>
<g fill-rule="evenodd"><path d="M 485,45 L 485,195 L 305,195 L 305,45 L 485,45 z " style="opacity:0.8;fill:none;stroke:rgb(128,128,128);stroke-width:2;stroke-dasharray:1,7;stroke-linecap:round"/></g>
<g fill-rule="evenodd"><path d="M 975,45 L 975,195 L 795,195 L 795,45 L 975,45 z " style="opacity:0.8;fill:none;stroke:rgb(128,128,128);stroke-width:2;stroke-dasharray:1,7;stroke-linecap:round"/></g>
<g fill-rule="evenodd"><path d="M 175,45 L 175,225 L 25,225 L 25,45 L 175,45 z " style="opacity:0.8;fill:none;stroke:rgb(128,128,128);stroke-width:2;stroke-dasharray:1,7;stroke-linecap:round"/></g>
<g fill-rule="evenodd"><path d="M 975,195 L 975,375 L 825,375 L 825,195 L 975,195 z " style="opacity:0.8;fill:none;stroke:rgb(128,128,128);stroke-width:2;stroke-dasharray:1,7;stroke-linecap:round"/></g>
<g fill-rule="evenodd"><path d="M 205,225 L 205,375 L 25,375 L 25,225 L 205,225 z " style="opacity:0.8;fill:none;stroke:rgb(128,128,128);stroke-width:2;stroke-dasharray:1,7;stroke-linecap:round"/></g>
<g fill-rule="evenodd"><path d="M 825,195 L 825,225 L 735,225 L 735,225 L 565,225 L 565,235 L 540,235 L 540,285 L 490,285 L 490,235 L 465,235 L 465,225 L 385,225 L 385,225 L 175,225 L 175,195 L 825,195 z " style="opacity:0.8;fill:none;stroke:rgb(128,128,128);stroke-width:2;stroke-dasharray:1,7;stroke-linecap:round"/></g>
<g fill-rule="evenodd"><path d="M 565,235 L 565,260 L 540,260 L 540,235 L 565,235 z " style="opacity:0.8;fill:none;stroke:rgb(128,128,128);stroke-width:2;stroke-dasharray:1,7;stroke-linecap:round"/></g>
<g fill-rule="evenodd"><path d="M 490,235 L 490,260 L 465,260 L 465,235 L 490,235 z " style="opacity:0.8;fill:none;stroke:rgb(128,128,128);stroke-width:2;stroke-dasharray:1,7;stroke-linecap:round"/></g>
<g fill-rule="evenodd"><path d="M 565,260 L 565,285 L 540,285 L 540,260 L 565,260 z " style="opacity:0.8;fill:none;stroke:rgb(128,128,128);stroke-width:2;stroke-dasharray:1,7;stroke-linecap:round"/></g>
<g fill-rule="evenodd"><path d="M 490,260 L 490,285 L 465,285 L 465,260 L 490,260 z " style="opacity:0.8;fill:none;stroke:rgb(128,128,128);stroke-width:2;stroke-dasharray:1,7;stroke-linecap:round"/></g>
<g fill-rule="evenodd"><path d="M 565,285 L 565,375 L 515,375 L 515,285 L 565,285 z " style="opacity:0.8;fill:none;stroke:rgb(128,128,128);stroke-width:2;stroke-dasharray:1,7;stroke-linecap:round"/></g>
<g fill-rule="evenodd"><path d="M 515,285 L 515,375 L 465,375 L 465,285 L 515,285 z " style="opacity:0.8;fill:none;stroke:rgb(128,128,128);stroke-width:2;stroke-dasharray:1,7;stroke-linecap:round"/></g>
<g fill-rule="evenodd"><path d="M 665,45 L 665,195 L 575,195 L 575,45 L 665,45 z " style="opacity:0.8;fill:none;stroke:rgb(128,128,128);stroke-width:2;stroke-dasharray:1,7;stroke-linecap:round"/></g>
<g fill-rule="evenodd"><path d="M 575,45 L 575,195 L 485,195 L 485,45 L 575,45 z " style="opacity:0.8;fill:none;stroke:rgb(128,128,128);stroke-width:2;stroke-dasharray:1,7;stroke-linecap:round"/></g>
<text style="font-family:sans-serif;font-size:16px;text-anchor:middle;fill:rgb(128,0,0)" x="730" y="125">F2-9 1-Bed NE</text>
<text style="font-family:sans-serif;font-size:16px;text-anchor:middle;fill:rgb(128,0,0)" x="240" y="125">F2-9 1-Bed NW</text>
<text style="font-family:sans-serif;font-size:16px;text-anchor:middle;fill:rgb(128,0,0)" x="630" y="305">F2-9 1-Bed SE Inner</text>
<text style="font-family:sans-serif;font-size:16px;text-anchor:middle;fill:rgb(128,0,0)" x="760" y="305">F2-9 1-Bed SE Outer</text>
<text style="font-family:sans-serif;font-size:16px;text-anchor:middle;fill:rgb(128,0,0)" x="400" y="305">F2-9 1-Bed SW Inner</text>
<text style="font-family:sans-serif;font-size:16px;text-anchor:middle;fill:rgb(128,0,0)" x="270" y="305">F2-9 1-Bed SW Outer</text>
<text style="font-family:sans-serif;font-size:16px;text-anchor:middle;fill:rgb(128,0,0)" x="395" y="125">F2-9 2-Bed N Core</text>
<text style="font-family:sans-serif;font-size:16px;text-anchor:middle;fill:rgb(128,0,0)" x="885" y="125">F2-9 2-Bed NE</text>
<text style="font-family:sans-serif;font-size:16px;text-anchor:middle;fill:rgb(128,0,0)" x="100" y="140">F2-9 2-Bed NW</text>
<text style="font-family:sans-serif;font-size:16px;text-anchor:middle;fill:rgb(128,0,0)" x="900" y="290">F2-9 2-Bed SE</text>
<text style="font-family:sans-serif;font-size:16px;text-anchor:middle;fill:rgb(128,0,0)" x="115" y="305">F2-9 2-Bed SW</text>
<text style="font-family:sans-serif;font-size:16px;text-anchor:middle;fill:rgb(128,0,0)" x="500" y="245">F2-9 Corridor</text>
<text style="font-family:sans-serif;font-size:16px;text-anchor:middle;fill:rgb(128,0,0)" x="552" y="252">F2-9 Elevator NE</text>
<text style="font-family:sans-serif;font-size:16px;text-anchor:middle;fill:rgb(128,0,0)" x="477" y="252">F2-9 Elevator NW</text>
<text style="font-family:sans-serif;font-size:16px;text-anchor:middle;fill:rgb(128,0,0)" x="552" y="277">F2-9 Elevator SE</text>
<text style="font-family:sans-serif;font-size:16px;text-anchor:middle;fill:rgb(128,0,0)" x="477" y="277">F2-9 Elevator SW</text>
<text style="font-family:sans-serif;font-size:16px;text-anchor:middle;fill:rgb(128,0,0)" x="540" y="335">F2-9 Laundry</text>
<text style="font-family:sans-serif;font-size:16px;text-anchor:middle;fill:rgb(128,0,0)" x="490" y="335">F2-9 Stairs</text>
<text style="font-family:sans-serif;font-size:16px;text-anchor:middle;fill:rgb(128,0,0)" x="620" y="125">F2-9 Studio NE</text>
<text style="font-family:sans-serif;font-size:16px;text-anchor:middle;fill:rgb(128,0,0)" x="530" y="125">F2-9 Studio NW</text>
<text style="font-family:sans-serif;font-size:16px;fill:rgb(128,0,0)" x="5" y="15">BuildingStory 'Building Story Residential Floors 2-9':  glazings and final daylit areas and control positions</text>
</svg>
